<?xml version="1.0" encoding="UTF-8" standalone="no"?>
<!-- Created with Inkscape (http://www.inkscape.org/) -->

<svg
   xmlns:dc="http://purl.org/dc/elements/1.1/"
   xmlns:cc="http://creativecommons.org/ns#"
   xmlns:rdf="http://www.w3.org/1999/02/22-rdf-syntax-ns#"
   xmlns:svg="http://www.w3.org/2000/svg"
   xmlns="http://www.w3.org/2000/svg"
   xmlns:sodipodi="http://sodipodi.sourceforge.net/DTD/sodipodi-0.dtd"
   xmlns:inkscape="http://www.inkscape.org/namespaces/inkscape"
   width="502.39999"
   height="445.55988"
   id="svg2"
   sodipodi:version="0.32"
   inkscape:version="0.48.4 r9939"
   version="1.0"
   sodipodi:docname="22.svg"
   inkscape:output_extension="org.inkscape.output.svg.inkscape"
   sodipodi:modified="true">
  <defs
     id="defs4" />
  <sodipodi:namedview
     id="base"
     pagecolor="#ffffff"
     bordercolor="#666666"
     borderopacity="1.0"
     gridtolerance="10000"
     guidetolerance="10"
     objecttolerance="10"
     inkscape:pageopacity="0.0"
     inkscape:pageshadow="2"
     inkscape:zoom="0.88518519"
     inkscape:cx="176.14154"
     inkscape:cy="233.87589"
     inkscape:document-units="px"
     inkscape:current-layer="layer1"
     showgrid="true"
     showguides="true"
     width="2700px"
     height="1500px"
     inkscape:window-width="1280"
     inkscape:window-height="1001"
     inkscape:window-x="-8"
     inkscape:window-y="-8"
     fit-margin-top="1.2"
     fit-margin-left="1.2"
     fit-margin-right="1.2"
     fit-margin-bottom="1.2"
     inkscape:window-maximized="1" />
  <metadata
     id="metadata7">
    <rdf:RDF>
      <cc:Work
         rdf:about="">
        <dc:format>image/svg+xml</dc:format>
        <dc:type
           rdf:resource="http://purl.org/dc/dcmitype/StillImage" />
        <dc:title></dc:title>
      </cc:Work>
    </rdf:RDF>
  </metadata>
  <g
     inkscape:label="Layer 1"
     inkscape:groupmode="layer"
     id="layer1"
     transform="translate(2002.9419,1318.6117)">
    <path
       style="fill:#ffffff;fill-opacity:1;fill-rule:evenodd;stroke:#000000;stroke-opacity:1;stroke-width:2;stroke-miterlimit:4;stroke-dasharray:none"
       d="m -1751.7419,-1317.4117 c -9.7444,0 -19.1235,5.4404 -23.7188,13.875 l -222.75,388.65625 c -2.1724,3.97029 -3.5312,9.01631 -3.5312,13.71875 0,14.99423 11.9924,27.1503 26.9687,26.90625 l 446.0625,0 c 14.9763,0.24405 26.9688,-11.91202 26.9688,-26.90625 0,-4.70244 -1.3589,-9.74846 -3.5313,-13.71875 l -222.75,-388.65625 c -4.5953,-8.4346 -13.9743,-13.875 -23.7187,-13.875 z"
       id="path5908"
       inkscape:connector-curvature="0"
       sodipodi:nodetypes="sccsccsccs" />
    <path
       style="fill:#d40000;fill-opacity:1;fill-rule:evenodd;stroke:none"
       d="m -1751.7421,-1308.3319 c 6.4049,0 12.3777,3.5624 15.5625,9.0625 l 223,388.6563 c 3.1667,5.54174 3.1844,12.57285 0,18.15625 -3.1962,5.58341 -9.2859,9.08036 -15.625,9.0625 l -445.875,0 c -6.3391,0.0179 -12.4288,-3.47909 -15.625,-9.0625 -3.1844,-5.5834 -3.1667,-12.61451 0,-18.15625 l 223,-388.6563 c 3.1848,-5.5001 9.1576,-9.0625 15.5625,-9.0625 z"
       id="path5916"
       inkscape:connector-curvature="0"
       sodipodi:nodetypes="sccccccccs" />
    <path
       inkscape:connector-curvature="0"
       d="m -1922.7069,-931.68198 341.93,0 -170.965,-298.32952 z"
       style="fill:#ffffff;fill-opacity:1;fill-rule:evenodd;stroke:none"
       id="path5920"
       sodipodi:nodetypes="cccc" />
    <path
       inkscape:connector-curvature="0"
       d="m -1693.2173,-985.38597 -13.982,-12.0399 -19.9725,-18.15783 1.9421,-0.1146 2.3772,1.9051 3.688,-4.8074 -18.8743,-17.8712 c 4.3247,-5.2319 7.9168,-10.6017 12.6554,-15.7911 l 12.2891,-12.1885 c -2.4357,-4.2607 -5.4972,-9.6785 -7.848,-13.9659 -12.8091,9.4081 -23.1082,23.2572 -32.8079,37.6688 l -26.1437,-23.4427 11.5781,-24.2017 20.9593,-14.4591 9.3657,6.6858 c 29.7303,24.3129 54.7597,44.402 81.4124,69.24 l 16.5341,17.139 -32.962,38.32123 -20.211,-13.9179 z m 1.8092,-6.9936 -4.9666,-11.46133 c 10.8989,-10.2995 11.6685,-11.1697 21.8563,-24.7748 l 12.0769,2.4358 c -8.6546,12.6499 -18.4816,23.7449 -28.9666,33.80033 m -29.5873,-20.11043 3.7144,-5.0145 16.4334,13.3185 2.9129,8.83503 -1.5494,1.4539 -21.5113,-18.59293 z m -139.5469,69.44173 -18.3806,-45.861 7.6991,-4.5315 c 42.041,-19.35693 48.037,-20.55613 110.1829,-42.87943 l 7.4338,-1.316 14.8097,19.7496 c 0.9976,8.4475 1.9896,16.8949 3.0988,25.09823 -19.3675,9.3232 -38.5865,17.7015 -58.5908,26.3717 -36.5277,13.2973 -34.6917,12.4751 -66.2529,23.3684 m 188.3107,-89.36663 c -1.7774,-0.2504 -3.7037,0.1571 -6.1658,-1.7192 l -13.2387,-12.6974 4.2501,-5.2056 21.4,18.8318 c -2.1013,0.7641 -4.1282,0.9072 -6.2456,0.7904 m -20.869,-15.4622 -17.0646,-13.9815 -6.3836,-14.0083 27.9054,22.3016 -4.4572,5.6882 z m -76.5999,67.16563 -14.6612,-0.3014 c -3.587,-11.764 -8.2403,-22.63103 -13.8598,-33.45563 l 11.7853,-9.2379 c 9.3601,15.3985 14.6344,28.52053 16.7357,42.99583 m -87.515,-13.6688 11.1536,0.1953 c 0.9551,5.8844 3.1786,10.9095 5.1843,16.4224 2.2923,6.288 5.0566,11.7161 7.3331,16.3324 l -7.5347,8.6758 c -7.5615,-12.8834 -14.1251,-30.3831 -16.1363,-41.6271 m 139.234,53.5342 -6.3725,1.5282 -5.9696,-54.7385 1.9633,-0.3142 10.3788,53.5236 z m -66.3802,-31.4605 -17.9612,6.9298 -2.4994,-6.3143 18.5877,-6.8607 14.4167,-0.093 c -3.8523,2.4833 -7.8264,4.627 -12.5438,6.3407 m -56.9247,-24.8062 -12.0344,-2.0537 29.4599,-12.60193 2.1917,6.0278 -19.6172,8.62783 z m 39.0853,-15.51523 -16.5179,6.0117 -2.2553,-6.2028 30.1446,-11.2652 c -3.2105,4.2343 -7.742,7.5666 -11.3714,11.4563 m -15.494,53.14663 c -5.8313,1.926 -10.575,3.8468 -16.2581,5.6191 l 5.391,-9.3814 22.3445,-7.938 2.3505,6.4684 c -3.1464,1.1462 -8.2352,3.1944 -13.8279,5.2319 m 33.4875,-92.34873 -34.5751,-28.0964 4.1758,-5.6776 31.6885,32.4101 -1.2892,1.3639 z m 3.4116,10.7291 -44.6992,-2.6318 -0.3226,-6.3199 45.7231,7.609 -0.7004,1.3427 z m -50.3395,-24.9233 3.1252,-6.0915 40.1202,23.2041 -0.3566,1.2205 -42.8896,-18.3331 z m 128.6481,123.69253 -21.4102,-50.3981 2.0957,-0.759 25.3796,48.2544 -6.0651,2.9027 z m 16.8791,-14.5495 -35.8328,-41.887 1.6717,-1.1037 39.3981,38.9049 -5.237,4.0858 z"
       style="fill:#000000;fill-opacity:1;fill-rule:evenodd;stroke:none"
       id="path5003" />
  </g>
</svg>
